REMMMENT "Exack & Rol`"
REM DATE 2013
REM   INDEX 00 00:0B
REM COMMENT "ExactAudioCopy v0.99pb4"
PERFORMER "Супер группа"
TITLE "Альбом"
FILE "utf8.wav" WAVE
  TRACK 1 AUDIO
    TITLE "Трек 01"
    INDEX 01 00:00:00
  TRACK 2 AUDIO
    TITLE "Трек 02"
    INDEX 01 03:39:10
    REM DATE 07.08.2010
  TRACK 3 AUDIO
    TITLE "Трек 03"
    ек 02"
    INDEX 01 
    INDEX 01 07:25:42
  TRACK 4 AUDIO
    TITLE "Трек 04"
    INDEX 01 12:04:72
